<?xml version="1.0" encoding="utf-8"?>
<!-- Generator: Adobe Illustrator 19.1.0, SVG Export Plug-In . SVG Version: 6.00 Build 0)  -->
<svg version="1.1" id="Layer_1" xmlns="http://www.w3.org/2000/svg" xmlns:xlink="http://www.w3.org/1999/xlink" x="0px" y="0px"
	 viewBox="0 0 400 400" style="enable-background:new 0 0 400 400;" xml:space="preserve">
<style type="text/css">
	.st0{fill:#FFFFFF;}
</style>
<g>
	<path class="st0" d="M0,0v400h400V0H0z M384,384H15V15h369V384z"/>
	<path class="st0" d="M128.5,309.6c46.9,0,94.1,0,141,0c9.1,0,12.3-3.1,12.3-12.1c0-47.3,0-94.6,0.2-141.9c0-4.1-1.2-7-4-9.8
		c-17.3-17.2-34.6-34.5-51.8-51.9c-2.8-2.8-5.8-4.1-9.8-4.1c-29.5,0.1-58.9,0-88.4,0.1c-7.6,0-11.3,3.3-11.3,10.9
		c0,32.9-0.6,65.8-0.6,98.7c0,32.8,0,65.5,0,98.3C116,306.5,119.6,309.6,128.5,309.6z M228,122c6,7.5,14.2,16,21.6,22
		c-7.2,0-15.6,0-21.6,0C228,136,228,129.5,228,122z M136,108c2,0,2.5,0,3.9,0c15.8,0,31.7,0.2,47.5-0.2c14.3-0.4,22.3,9.6,21.5,21.5
		c-0.5,7.6-0.1,15.3-0.1,22.9c0,7.3,3.3,10.6,10.7,10.7c13.9,0.1,28.1,0,41.9,0c0.7,0,0.6,0.1,2.6,0.2c0,42.5,0,85,0,127
		c-43,0-85,0-128,0C136,230,136,169,136,108z"/>
	<path class="st0" d="M218.4,232.8c-1.9-1.9-4.2-3.5-7.2-5.9c2.2-1.6,3.4-2.2,4.3-3.2c8.9-8.8,17.8-17.7,26.6-26.6
		c5-5,4.5-10.9-0.9-14.5c-3.9-2.6-8.1-2.1-11.8,1.6c-9.8,9.8-19.6,19.7-29.7,29.8c-1.2-1.1-2.2-2.1-3.2-3.1
		c-8.9-8.9-17.7-17.8-26.7-26.6c-4.2-4.2-9.7-4.4-13.3-0.6c-4,4.1-4,8.8,0.4,13.3c6.5,6.6,13,13.1,19.6,19.6
		c3.4,3.3,6.9,6.5,10.4,9.8c-1.5,1.6-2.4,2.5-3.3,3.4c-8.8,8.8-17.6,17.6-26.3,26.4c-2.8,2.8-4.9,6-3.1,10.2
		c2.7,6.5,10.1,8.2,15.2,3.3c9.1-8.8,18.1-17.8,27.1-26.7c1-1,2-1.9,3.2-3c9.9,10,19.5,19.6,29.2,29.2c4.5,4.5,9.9,4.9,13.6,1.1
		c4.2-4.3,4-9-0.8-13.9C234.1,248.5,226.2,240.6,218.4,232.8z"/>
</g>
</svg>
