<?xml version="1.0" encoding="utf-8"?>
<!-- Generator: Adobe Illustrator 19.1.0, SVG Export Plug-In . SVG Version: 6.00 Build 0)  -->
<svg version="1.1" id="Layer_1" xmlns="http://www.w3.org/2000/svg" xmlns:xlink="http://www.w3.org/1999/xlink" x="0px" y="0px"
	 viewBox="0 0 400 400" style="enable-background:new 0 0 400 400;" xml:space="preserve">
<style type="text/css">
	.st0{fill:#FFFFFF;}
</style>
<g>
	<g>
		<path class="st0" d="M400,400H0V0h400V400z M15.1,384.9h369.8V15.1H15.1V384.9z"/>
	</g>
	<g>
		<path class="st0" d="M245.8,163c-14.5,0-28.5,0-42.4,0c-10,0-12.7-2.8-12.7-12.8c0-7.4,0-14.9,0-22.3c0-12.7-7.4-20.3-20.3-20.3
			c-14.6-0.1-29.2,0-43.8,0c-2.9,0-5.8,0-9.1,0c0,61.4,0,122.5,0,184.2c1.5,0,3.1,0,4.6,0c13.5,0,27.1,0,40.6,0c3.9,0,7,1.6,8.5,5.3
			c1.4,3.5,1.4,7.2-1.4,9.6c-2.1,1.9-5.3,3.4-8,3.5c-17.8,0.3-35.6,0.2-53.4,0.1c-6.6-0.1-9.9-3.7-9.9-10.3c0-66.8,0-133.5,0-200.3
			c0-6.6,3.4-10.1,10-10.1c30.1,0,60.3-0.1,90.4,0.1c2.8,0,6.3,1.5,8.4,3.5c17.7,17.4,35.2,35,52.8,52.5c2.7,2.7,4.1,5.8,4,9.6
			c-0.1,5.3,0,10.6,0,15.9c-0.1,5.9-3.8,9.9-9.2,9.9c-5.4,0-9.1-3.9-9.2-9.8C245.8,168.8,245.8,166.2,245.8,163z M209.3,121.3
			c0,8.2,0,15.6,0,23c7.7,0,15.1,0,23.3,0c-7.3-7.3-14.1-14-20.8-20.7C211.2,123,210.5,122.4,209.3,121.3z"/>
		<path class="st0" d="M217.1,262.5c-9.4-15.2-10.9-30.2-3.7-45.3c8.2-17.2,22.5-26.5,41.5-26.5c19.2-0.1,33.8,9.2,41.8,26.6
			c8,17.3,5.7,34-6.7,48.7c-14.2,17-38.1,21.3-57.7,10.6c-2.5-1.4-3.8-1.1-5.7,0.8c-9.7,9.9-19.4,19.6-29.3,29.3
			c-5.2,5.1-12.5,3.8-15.4-2.5c-1.7-3.6-0.8-7,2.9-10.7c9.5-9.5,19-18.9,28.6-28.3C214.5,264.2,215.8,263.4,217.1,262.5z
			 M227.6,236.5c0,15,12.8,27.7,27.7,27.6c15.4-0.1,27.4-12.4,27.4-28.2c0-14.7-12.9-27.4-27.6-27.2
			C239.9,208.9,227.5,221.4,227.6,236.5z"/>
		<path class="st0" d="M172,199.6c-8.8,0-17.5,0.1-26.3,0c-6.4-0.1-10.6-4.2-10.2-9.7c0.4-5.1,4.2-8.6,10.1-8.6
			c17.8-0.1,35.6-0.1,53.4,0c6,0,10,3.8,10,9.1c0,5.3-3.9,9.1-9.9,9.2C190.1,199.8,181.1,199.6,172,199.6z"/>
		<path class="st0" d="M163,273c-5.8,0-11.7,0.1-17.5,0c-5.8-0.1-9.7-3.6-9.9-8.7c-0.2-5,3.5-9.3,9.2-9.5c12.3-0.3,24.7-0.3,37,0
			c5.6,0.1,9.2,4.7,8.9,9.7c-0.3,5-4.1,8.4-9.7,8.4C174.9,273.1,168.9,273,163,273z"/>
		<path class="st0" d="M162.7,236.3c-5.7,0-11.4,0.1-17.1,0c-6-0.1-10-3.7-10.1-9c-0.1-5.2,3.9-9.2,9.8-9.3
			c11.8-0.2,23.6-0.2,35.4,0c5.9,0.1,9.9,4,9.9,9.2c0,5.3-4,8.9-10,9C174.7,236.4,168.7,236.3,162.7,236.3z"/>
		<path class="st0" d="M154.3,144.7c3,0,6.1-0.1,9.1,0c5.1,0.3,8.6,3.8,8.8,8.5c0.3,4.8-2.7,9-7.7,9.4c-7,0.5-14,0.5-21,0
			c-5-0.3-8.2-4.7-8-9.3c0.2-4.8,3.9-8.4,9.2-8.6C147.9,144.5,151.1,144.6,154.3,144.7C154.3,144.7,154.3,144.7,154.3,144.7z"/>
	</g>
</g>
</svg>
