<?xml version="1.0" encoding="utf-8"?>
<!-- Generator: Adobe Illustrator 19.1.0, SVG Export Plug-In . SVG Version: 6.00 Build 0)  -->
<svg version="1.1" id="Layer_1" xmlns="http://www.w3.org/2000/svg" xmlns:xlink="http://www.w3.org/1999/xlink" x="0px" y="0px"
	 viewBox="0 0 400 400" style="enable-background:new 0 0 400 400;" xml:space="preserve">
<style type="text/css">
	.st0{fill:#FFFFFF;}
</style>
<g>
	<path class="st0" d="M0,0v400h400V0H0z M386,385H15V14h371V385z"/>
	<path class="st0" d="M114.8,310.2c17.8,0.1,35.7,0.2,53.5-0.1c2.7,0,5.9-1.6,8-3.5c2.7-2.5,2.8-6.2,1.4-9.6
		c-1.5-3.8-4.6-5.6-8.5-5.7c-13.6,0-27.1-0.3-40.7-0.3c-1.5,0-2.5,0-4.5,0c0-61,0-122,0-185c3,0,6,0,8.9,0c14.6,0,28.7,0.4,43.3,0.5
		c12.9,0.1,19.7,8.1,19.7,20.9c0,7.5,0,14.9,0,22.4c0,10,3.4,12.8,13.4,12.8c14,0,28.2,0,42.8,0c0,3.2,0.1,5.8,0.2,8.5
		c0.1,6,3.8,9.9,9.2,9.9c5.4,0,9.2-4,9.2-9.9c0.1-5.3,0-10.6,0.1-16c0.1-3.8-1.3-6.9-4-9.6c-17.6-17.6-35.1-35.3-52.9-52.7
		c-2-2-5.5-3.5-8.4-3.5c-30.2-0.3-60.4-0.2-90.6-0.1c-6.6,0-10.1,3.6-10.1,10.1c0,66.9,0,133.9,0,200.8
		C104.9,306.5,108.2,310.2,114.8,310.2z M216,120.7c2,1.1,1.8,1.8,2.4,2.4c6.8,6.7,13.5,12.9,20.8,20.9c-8.2,0-16.2,0-23.2,0
		C216,136,216,128.9,216,120.7z"/>
	<path class="st0" d="M152.1,199.2c8.8,0.1,17.6,0,26.3,0c9,0,18.1,0.1,27.1,0c6-0.1,10-3.9,9.9-9.2c0-5.3-4-9.1-10-9.1
		c-17.8-0.1-35.7-0.1-53.5,0c-5.9,0-9.8,3.5-10.1,8.6C141.5,195,145.7,199.2,152.1,199.2z"/>
	<path class="st0" d="M151.9,272.8c5.8,0.1,11.7,0,17.6,0c6,0,12,0.1,18,0c5.6-0.1,9.4-3.5,9.8-8.5c0.3-5.1-3.3-9.6-8.9-9.7
		c-12.4-0.3-24.7-0.3-37.1,0c-5.7,0.1-9.4,4.4-9.2,9.5C142.2,269.2,146,272.7,151.9,272.8z"/>
	<path class="st0" d="M152,236c5.7,0.1,11.4,0,17.2,0c6,0,12,0.1,17.9,0c6-0.1,10-3.8,10-9.1c0-5.2-4-9.2-9.9-9.2
		c-11.8-0.2-23.7-0.2-35.5,0c-6,0.1-9.9,4.1-9.8,9.3C142,232.3,146,235.9,152,236z"/>
	<path class="st0" d="M150.8,144.2c-5.3,0.2-8.8,3.8-9,8.6c-0.2,4.6,3.1,9,8.1,9.3c7,0.5,14.1,0.5,21.1,0c5.1-0.4,8.1-4.6,7.8-9.4
		c-0.3-4.8-4.1-8.2-9.2-8.5c-3-0.2-6.5,0-9.5,0c0,0,0,0,0,0C157,144.1,154,144,150.8,144.2z"/>
	<path class="st0" d="M201.1,297.5c-1.8-1.7-3.6-3.3-5.4-5c-1.4,4.9-2.8,9.8-4.3,15c5.5-2.1,10-4.1,14.7-5.4
		c-1.6-1.5-3.2-2.9-4.8-4.4C201.2,297.6,201.1,297.6,201.1,297.5z"/>
	<path class="st0" d="M207.7,271.4c6.4,5.9,12.8,11.8,19.2,17.7c4.9-3.3,9.2-7.4,13.3-12.3c10.4-12.5,41.5-45,52.5-57
		c5.8-6.4,5.4-14.8-0.6-20.2c-5.6-5-14.2-4.3-19.7,1.7c-14.4,15.6-48.4,52.3-62.8,67.9C208.9,269.9,208.2,270.6,207.7,271.4z"/>
</g>
</svg>
