<?xml version="1.0" encoding="utf-8"?>
<!-- Generator: Adobe Illustrator 19.1.0, SVG Export Plug-In . SVG Version: 6.00 Build 0)  -->
<svg version="1.1" id="Layer_1" xmlns="http://www.w3.org/2000/svg" xmlns:xlink="http://www.w3.org/1999/xlink" x="0px" y="0px"
	 viewBox="0 0 400 400" style="enable-background:new 0 0 400 400;" xml:space="preserve">
<style type="text/css">
	.st0{fill:#FFFFFF;}
</style>
<g>
	<path class="st0" d="M0,0v400h399V0H0z M385,384H16V15h369V384z"/>
	<path class="st0" d="M178.3,216.4c1.8,1.8,4.6,1.8,6.4,0l9.1-9.2c1.8-1.8,1.8-4.7,0-6.5l-3-3.1l12.6-12.6l84.7,85.1
		c3.9,4,10.3,4,14.3,0l1-1c3.9-4,3.9-10.4,0-14.3l-84.7-85.1l12.6-12.6l3,3.1c1.8,1.8,4.6,1.8,6.4,0l9.1-9.2c1.8-1.8,1.8-4.7,0-6.5
		L199.4,94c-1.8-1.8-4.6-1.8-6.4,0l-9.1,9.2c-1.8,1.8-1.8,4.7,0,6.5l2.1,2.1l-40.3,40.6l-2.1-2.1c-1.8-1.8-4.6-1.8-6.4,0l-9.1,9.2
		c-1.8,1.8-1.8,4.7,0,6.5L178.3,216.4z"/>
	<path class="st0" d="M98.9,305h141.8c2.6,0,5.3-1.3,5.3-4V289c0-2.6-2.7-5-5.3-5H230v-11.3c0-5.6-5.6-9.7-11.2-9.7h-97.9
		c-5.6,0-10.9,4.1-10.9,9.7V284H98.9c-2.6,0-5.9,2.3-5.9,5V301C93,303.7,96.3,305,98.9,305z"/>
</g>
</svg>
