<?xml version="1.0" encoding="utf-8"?>
<!-- Generator: Adobe Illustrator 19.1.0, SVG Export Plug-In . SVG Version: 6.00 Build 0)  -->
<svg version="1.1" id="Layer_1" xmlns="http://www.w3.org/2000/svg" xmlns:xlink="http://www.w3.org/1999/xlink" x="0px" y="0px"
	 viewBox="0 0 400 400" style="enable-background:new 0 0 400 400;" xml:space="preserve">
<style type="text/css">
	.st0{fill:#FFFFFF;}
</style>
<g>
	<path class="st0" d="M400,400H0V0h400V400z M15.1,384.9h369.8V15.1H15.1V384.9z"/>
	<g>
		<path class="st0" d="M283.1,116.9c-31.1-31.1-81.5-31.1-112.7,0c-28.5,28.5-30.9,73.3-7.1,104.5l-66.9,66.9c-4,4-4,10.4,0,14.3
			l1,1c4,4,10.4,4,14.3,0l66.9-66.9c31.2,23.8,76,21.4,104.5-7.1C314.3,198.4,314.3,148,283.1,116.9z M268.5,214.9
			c-23,23-60.4,23-83.4,0c-23-23-23-60.4,0-83.4c23-23,60.4-23,83.4,0C291.5,154.5,291.5,191.9,268.5,214.9z"/>
		<path class="st0" d="M203.7,174.8h-16.9c-2.5,0-4.4,2-4.4,4.4v23.2c6.2,9.3,15.2,16.6,25.8,20.6v-43.8
			C208.1,176.8,206.1,174.8,203.7,174.8z"/>
		<path class="st0" d="M266.9,148.7h-16.9c-2.5,0-4.4,2-4.4,4.4v69.9c10.6-4,19.7-11.3,25.8-20.6v-49.3
			C271.3,150.7,269.3,148.7,266.9,148.7z"/>
		<path class="st0" d="M235.3,190.8h-16.9c-2.5,0-4.4,2-4.4,4.4v29.6c4.1,1,8.5,1.6,12.9,1.6c4.5,0,8.8-0.6,12.9-1.6v-29.6
			C239.7,192.8,237.7,190.8,235.3,190.8z"/>
	</g>
</g>
</svg>
