<?xml version="1.0" encoding="utf-8"?>
<!-- Generator: Adobe Illustrator 19.1.0, SVG Export Plug-In . SVG Version: 6.00 Build 0)  -->
<svg version="1.1" id="Layer_1" xmlns="http://www.w3.org/2000/svg" xmlns:xlink="http://www.w3.org/1999/xlink" x="0px" y="0px"
	 viewBox="0 0 860 190" style="enable-background:new 0 0 860 190;" xml:space="preserve">
<style type="text/css">
	.st0{fill:#1B7DA0;}
</style>
<g>
	<path class="st0" d="M263,62.3c0-17.9-3.1-29.6-20.1-29.6h-20.1v60.9h19.3C258.4,93.6,263,83.9,263,62.3z M235.1,84.6V41.8h5.2
		c9.4,0,10.5,7.1,10.5,20.9c0,16.5-1.7,21.9-10.2,21.9H235.1z"/>
	<path class="st0" d="M284.3,67.9h6.6c4.9,0,7.1,2.9,7.2,7.7l0.3,11.7c0.1,2.4,0.3,4.7,1.5,6.4h13.3v-0.5c-2.3-1.2-2.6-4.5-2.7-10.9
		c-0.2-12.9-1.4-17.5-9.8-18.6v-0.2c6.9-1.4,10.1-6.9,10.1-15c0-10.4-6.1-15.7-16.2-15.7h-22.7v60.9h12.3V67.9z M284.3,41.8h5.8
		c5.5,0,8.5,2.8,8.5,8.4c0,6.6-3.3,9.1-9.2,9.1h-5.1V41.8z"/>
	<path class="st0" d="M329.1,45.2l-4.2,1.1c-5.1,1.4-7.3,3.6-7.3,9c0,3.9,1.8,8.3,7,8.3c3.5,0,5.6-0.8,7.4-3.8h0.1
		c0.2,1,0.4,2.1,0.9,3h7.1c-0.8-1.7-0.9-2.9-0.9-5.6V42.1c0-5.2-1.7-8.9-10.5-8.9c-5.6,0-10.2,2.3-10.2,8.9v0.7h6.7V42
		c0-2.3,1.2-3.8,3.4-3.8c2.5,0,3.4,1.3,3.4,3.5C332.1,43.8,331.3,44.6,329.1,45.2z M332.1,54.1c0,3.2-2.6,4.5-4.6,4.5
		c-2,0-2.8-1.8-2.8-4c0-2.6,1.2-4,4.2-4.7c0.9-0.2,2.2-0.7,3.2-1.5V54.1z"/>
	<polygon class="st0" points="406.4,83.5 383.8,83.5 383.8,67.2 404.3,67.2 404.3,57.1 383.8,57.1 383.8,42.8 405.6,42.8 
		405.6,32.7 371.6,32.7 371.6,93.6 406.4,93.6 	"/>
	<polygon class="st0" points="447.4,83.5 425.7,83.5 425.7,32.7 413.4,32.7 413.4,93.6 447.4,93.6 	"/>
	<rect x="454.4" y="32.7" class="st0" width="12.3" height="60.9"/>
	<path class="st0" d="M489.1,32.7l-16.1,60.9h12.8l2.8-12.9h16.2l2.8,12.9h12.8l-16.1-60.9H489.1z M490.7,70.7l5.9-27.4h0.2
		l5.9,27.4H490.7z"/>
	<polygon class="st0" points="537.7,51 537.9,51 552.9,93.6 566.9,93.6 566.9,32.7 555.6,32.7 555.6,74.4 555.5,74.4 540.6,32.7 
		526.5,32.7 526.5,93.6 537.7,93.6 	"/>
	<path class="st0" d="M604.3,32.7h-15.2L573,93.6h12.8l2.8-12.9h16.2l2.8,12.9h12.8L604.3,32.7z M590.8,70.7l5.9-27.4h0.2l5.9,27.4
		H590.8z"/>
	<polygon class="st0" points="662.2,67.2 682.6,67.2 682.6,57.1 662.2,57.1 662.2,42.8 683.9,42.8 683.9,32.7 649.9,32.7 
		649.9,93.6 662.2,93.6 	"/>
	<polygon class="st0" points="725.5,83.5 702.9,83.5 702.9,67.2 723.3,67.2 723.3,57.1 702.9,57.1 702.9,42.8 724.6,42.8 
		724.6,32.7 690.6,32.7 690.6,93.6 725.5,93.6 	"/>
	<polygon class="st0" points="766.5,83.5 744.7,83.5 744.7,32.7 732.4,32.7 732.4,93.6 766.5,93.6 	"/>
	<rect x="773.4" y="32.7" class="st0" width="12.3" height="60.9"/>
	<polygon class="st0" points="805.7,93.6 814.4,73 823.2,93.6 837,93.6 821.8,62.8 835.9,32.7 822.6,32.7 814.8,52.4 807,32.7 
		793.4,32.7 807.4,62.8 792.2,93.6 	"/>
	<polygon class="st0" points="228,138.9 243,138.9 243,134.5 228,134.5 228,121.8 243.9,121.8 243.9,117.4 223,117.4 223,157.8 
		244.6,157.8 244.6,153.4 228,153.4 	"/>
	<path class="st0" d="M253.5,127.3c0-4.3,2.5-6.6,6.7-6.6c4.8,0,6.3,2.9,6.3,7.2h5c-0.1-7.4-3.6-11.3-11.3-11.3
		c-10.2,0-11.8,7.4-11.8,11.1c0,14.8,19.1,8.2,19.1,19.6c0,4.3-3.1,7.1-7,7.1c-7.3,0-7.6-4.9-7.6-9.4h-5c0,8.6,2.8,13.5,12.2,13.5
		c5.7,0,12.6-2.7,12.6-12C272.6,131.8,253.5,138.6,253.5,127.3z"/>
	<path class="st0" d="M287.8,117.4h-10.3v40.4h5v-17.1h6.2c6.8,0,11.7-4.2,11.7-11.7C300.3,117.4,291.3,117.4,287.8,117.4z
		 M288.4,136.7h-5.9v-15.2h5.6c4.9,0,7,2.9,7,7.3C295.1,134.2,292,136.7,288.4,136.7z"/>
	<polygon class="st0" points="309.8,138.9 324.8,138.9 324.8,134.5 309.8,134.5 309.8,121.8 325.7,121.8 325.7,117.4 304.8,117.4 
		304.8,157.8 326.4,157.8 326.4,153.4 309.8,153.4 	"/>
	<path class="st0" d="M342.8,154.5c-6.9,0-7.8-7.6-7.8-16.9s0.9-16.9,7.8-16.9c5.1,0,6.6,3.9,6.7,8.5h5.2
		c-0.2-7.9-3.7-12.6-11.9-12.6c-11.1,0-13,10.8-13,21s1.5,21,13,21c8.8,0,11.8-7,12.3-14.7h-5.2
		C349.7,148.9,348.9,154.5,342.8,154.5z"/>
	<rect x="359.8" y="117.4" class="st0" width="5" height="40.4"/>
	<path class="st0" d="M380.2,117.4l-11.7,40.4h5.2l3-11.1h12.9l2.9,11.1h5.2l-10.9-40.4H380.2z M377.7,142.6l5.6-19.5h0.1l5.1,19.5
		H377.7z"/>
	<polygon class="st0" points="406.5,117.4 401.5,117.4 401.5,157.8 422.9,157.8 422.9,153.4 406.5,153.4 	"/>
	<rect x="427.1" y="117.4" class="st0" width="5" height="40.4"/>
	<path class="st0" d="M442.9,127.3c0-4.3,2.5-6.6,6.7-6.6c4.8,0,6.3,2.9,6.3,7.2h5c-0.1-7.4-3.6-11.3-11.3-11.3
		c-10.2,0-11.8,7.4-11.8,11.1c0,14.8,19.1,8.2,19.1,19.6c0,4.3-3.1,7.1-7,7.1c-7.3,0-7.6-4.9-7.6-9.4h-5c0,8.6,2.8,13.5,12.2,13.5
		c5.7,0,12.6-2.7,12.6-12C462,131.8,442.9,138.6,442.9,127.3z"/>
	<polygon class="st0" points="489.6,117.4 464.3,117.4 464.3,121.8 474.4,121.8 474.4,157.8 479.4,157.8 479.4,121.8 489.6,121.8 	
		"/>
	<path class="st0" d="M498.1,117.4l-11.7,40.4h5.2l3-11.1h12.9l2.9,11.1h5.2l-10.9-40.4H498.1z M495.7,142.6l5.6-19.5h0.1l5.1,19.5
		H495.7z"/>
	<polygon class="st0" points="538.3,138.9 553.3,138.9 553.3,134.5 538.3,134.5 538.3,121.8 554.2,121.8 554.2,117.4 533.3,117.4 
		533.3,157.8 554.9,157.8 554.9,153.4 538.3,153.4 	"/>
	<polygon class="st0" points="576.1,149.4 576,149.4 567.9,117.4 559.5,117.4 559.5,157.8 564.5,157.8 564.5,122.5 564.6,122.5 
		573.6,157.8 578.6,157.8 587.5,122.5 587.6,122.5 587.6,157.8 592.6,157.8 592.6,117.4 584.2,117.4 	"/>
	<polygon class="st0" points="619.1,117.4 614.1,117.4 614.1,157.8 635.5,157.8 635.5,153.4 619.1,153.4 	"/>
	<rect x="639.7" y="117.4" class="st0" width="5" height="40.4"/>
	<path class="st0" d="M663.5,154.5c-6.9,0-7.8-7.6-7.8-16.9s0.9-16.9,7.8-16.9c5.1,0,6.6,3.9,6.7,8.5h5.2
		c-0.2-7.9-3.7-12.6-11.9-12.6c-11.1,0-13,10.8-13,21s1.5,21,13,21c8.8,0,11.8-7,12.3-14.7h-5.2
		C670.4,148.9,669.5,154.5,663.5,154.5z"/>
	<rect x="680.4" y="117.4" class="st0" width="5" height="40.4"/>
	<polygon class="st0" points="714.8,117.4 689.5,117.4 689.5,121.8 699.7,121.8 699.7,157.8 704.6,157.8 704.6,121.8 714.8,121.8 	
		"/>
	<path class="st0" d="M723.4,117.4l-11.7,40.4h5.2l3-11.1h12.9l2.9,11.1h5.2L730,117.4H723.4z M720.9,142.6l5.6-19.5h0.1l5.1,19.5
		H720.9z"/>
	<path class="st0" d="M755.7,154.5c-6.9,0-7.8-7.6-7.8-16.9s0.9-16.9,7.8-16.9c5.1,0,6.6,3.9,6.7,8.5h5.2
		c-0.2-7.9-3.7-12.6-11.9-12.6c-11.1,0-13,10.8-13,21c0,9.6,1.4,19.7,11.1,20.9l-2.6,3.9l0.8,1c0.2-0.2,1-0.4,2.1-0.4
		c1.4,0,2.7,0.8,2.7,2.1c0,1.2-0.8,2.3-3.1,2.3c-0.9,0-3.5-0.6-3.6-0.7l-0.8,1.9c1.2,0.7,3.5,1.1,5.6,1.1c3.2,0,6.1-2,6.1-4.9
		c0-3.1-2.6-4.3-4.5-4.3c-0.4,0-1.3,0.2-1.7,0.3l-0.1-0.1l1.5-2.3c8.5-0.2,11.4-7.1,11.9-14.7h-5.2
		C762.6,148.9,761.7,154.5,755.7,154.5z"/>
	<path class="st0" d="M782.1,108.2c-3,0-5.3,2.9-5.3,6.3h3.1c0.2-1,0.7-2.5,2.2-2.5c1.2,0,4.1,2.1,6.5,2.1c3.2,0,4.9-3.5,4.9-6.3
		h-3.1c-0.2,1-0.5,2.5-2,2.5c-0.7,0-1.8-0.6-2.9-1.1C784.4,108.8,783.2,108.2,782.1,108.2z"/>
	<path class="st0" d="M785.2,116.6c-11.1,0-13,10.8-13,21s1.9,21,13,21c11.1,0,13-10.8,13-21S796.3,116.6,785.2,116.6z M785.2,154.5
		c-6.9,0-7.8-7.6-7.8-16.9s0.9-16.9,7.8-16.9c6.9,0,7.8,7.6,7.8,16.9S792.1,154.5,785.2,154.5z"/>
	<polygon class="st0" points="809,138.9 824,138.9 824,134.5 809,134.5 809,121.8 824.9,121.8 824.9,117.4 804,117.4 804,157.8 
		825.6,157.8 825.6,153.4 809,153.4 	"/>
	<path class="st0" d="M834.6,127.3c0-4.3,2.5-6.6,6.7-6.6c4.8,0,6.3,2.9,6.3,7.2h5c-0.1-7.4-3.6-11.3-11.3-11.3
		c-10.2,0-11.8,7.4-11.8,11.1c0,14.8,19.1,8.2,19.1,19.6c0,4.3-3.1,7.1-7,7.1c-7.3,0-7.6-4.9-7.6-9.4h-5c0,8.6,2.8,13.5,12.2,13.5
		c5.7,0,12.6-2.7,12.6-12C853.6,131.8,834.6,138.6,834.6,127.3z"/>
	<polygon class="st0" points="123.2,142.1 115.3,128.4 102,136.1 92.7,120.1 103.3,114 95.4,100.3 84.8,106.4 75.6,90.4 88.9,82.7 
		81,69 49,87.5 56.9,101.1 56.9,101.1 70.1,124 74,130.9 74,130.9 83.3,146.9 83.3,146.9 91.2,160.5 91.2,160.5 91.2,160.6 
		109.9,149.8 109.8,149.8 	"/>
	<path class="st0" d="M199,67.7l-27.8-35.2v-1.8h2.2c1.4,0,2.5-1.1,2.5-2.5v-1.2c0-3.5-2.8-6.3-6.3-6.3H167c-3.5,0-6.3,2.8-6.3,6.3
		v0.5c-6.4,1.4-16.3,0.5-27.7-3c-10.6-3.3-18.2-2.9-21.6-2.5c-0.9-2.8-2.8-5.1-5.1-6.2v-0.9c1-0.3,1.7-1.3,1.7-2.4v-2.4
		c0-1.4-1.1-2.5-2.5-2.5h-5c-1.4,0-2.5,1.1-2.5,2.5v2.4c0,1.1,0.7,2,1.7,2.4V16c-2.3,1.1-4.2,3.4-5.1,6.2c-3.3-0.5-11-0.9-21.8,2.5
		c-11.4,3.5-21.3,4.4-27.7,3v-0.5c0-3.5-2.8-6.3-6.3-6.3h-2.6c-3.5,0-6.3,2.8-6.3,6.3v1.2c0,1.4,1.1,2.5,2.5,2.5h2.2v1.8L6.9,67.7
		c-0.2,0.2-0.2,0.4-0.3,0.6c-0.2,0.4-0.3,0.8-0.3,1.2v0.3c0,4,14,7.3,31.2,7.3c17.2,0,31.2-3.3,31.2-7.3v-0.3c0-0.4-0.1-0.8-0.3-1.2
		c0-0.2-0.1-0.5-0.3-0.7L40.4,32.6V31c3,1.4,7.7,2.8,13.9,2.2c11.4-0.9,26-9.1,39.7-7.9c0,0.3,0,0.6,0,1c0,4.7,2.4,8.7,5.8,10.3
		v21.6l-3.5,2l0,0L82.9,68l7.9,13.6l13.3-7.7l9.3,16.1l-10.6,6.1l7.9,13.6l10.6-6.1l17.2,29.7l18.7-10.8L136,86l-3.9-6.8l0,0
		l-17.2-29.7l-8.6,4.9V36.6c3.4-1.6,5.8-5.6,5.8-10.3c0-0.3,0-0.7,0-1c13.6-1.1,28.1,7,39.5,7.9c6.3,0.5,10.9-0.8,13.9-2.2v1.6
		l-27.8,35.2c-0.2,0.2-0.3,0.4-0.3,0.7c-0.2,0.4-0.3,0.8-0.3,1.2v0.3c0,4,14,7.3,31.2,7.3s31.2-3.3,31.2-7.3v-0.3
		c0-0.4-0.1-0.8-0.3-1.2C199.2,68.1,199.1,67.9,199,67.7z M36,35.9v31.7c-13.3,0-21-0.4-24.6-0.6L36,35.9z M39.1,35.9L63.7,67
		c-3.5,0.2-11.3,0.6-24.6,0.6V35.9z M166.8,35.9v31.7c-13.3,0-21.1-0.4-24.6-0.6L166.8,35.9z M169.9,35.9L194.5,67
		c-3.5,0.2-11.3,0.6-24.6,0.6V35.9z"/>
	<path class="st0" d="M122.5,175c-0.3-0.4-0.7-0.7-1.1-0.9c0.3-1.2,1.5-4.4,6.6-5.9c5.9-1.7,3.8-11.9,3.8-11.9s-1.2,3.7-8.2,5.4
		c-5.9,1.4-3.4,9.8-2.5,12.3c-2.2-1.1-5-0.9-6.4-0.7v-1.9c0-1.2-0.9-2.1-2.1-2.1c-1.2,0-2.1,0.9-2.1,2.1v8.3c0,1.2,0.9,2.1,2.1,2.1
		c1.2,0,2.1-0.9,2.1-2.1v-5.6c3.9,2.7,3.3,6.6,7.2,7.1c7.1,0.9,8.2-6.2,8.2-6.2S125.4,178.2,122.5,175z"/>
	<path class="st0" d="M132.8,170.4c-5.1-0.9-8.2,5-8.2,5c8.9-3,6.3,3,13.1,3.4c7.9,0.5,8.9-8.3,8.9-8.3
		C141.9,172.5,139.2,171.5,132.8,170.4z"/>
	<path class="st0" d="M141.7,160c5.7-3.9,3-9.8,3-9.8c-1.1,2.1-7.3,2.6-9.4,6.4c-2.1,3.7-0.9,10.7-0.9,10.7S136,163.8,141.7,160z"/>
	<path class="st0" d="M148.6,160.1c-8.1-0.1-10.5,6.9-10.5,6.9c5.6-2.5,9.3,3.8,17-1.8c5.2-3.7,4.9-10.1,4.9-10.1
		S156.7,160.1,148.6,160.1z"/>
	<path class="st0" d="M146.4,144.3c-3.6,5.9,3.5,12,3.5,12c-0.7-4,2-5.9,4.7-10.5c1.3-2.2,1.3-4.7,1-6.7c0.7,2.7,2.8,4.6,2.8,4.6
		c0.5-3.8,2.8-5.7,4-9.1c1.2-3.5-0.8-9.2-0.8-9.2c0.3,3.5-3.8,5.5-5.8,9.8c-0.5,1-0.6,2-0.5,2.9c-0.4-1.6-0.9-2.7-0.9-2.7
		C154.1,138.8,150,138.4,146.4,144.3z"/>
	<path class="st0" d="M158.2,147.5c-6.1,0.7-6.8,6.9-6.8,6.9c1.5-1.1,7.2,1.3,12.4-1.6c3.5-2,4.8-9.1,4.8-9.1
		C167.6,146.2,164.3,146.8,158.2,147.5z"/>
	<path class="st0" d="M165.4,134.4c-5.4,2.3-4.3,8.1-4.3,8.1c1.1-1.4,6.9-0.8,10.9-4.8c2.7-2.7,1.9-9.6,1.9-9.6
		C173.6,130.6,170.8,132.2,165.4,134.4z"/>
	<path class="st0" d="M170.7,118.2c-4.8,3.4-2.5,8.9-2.5,8.9c0.8-1.6,6.6-2.2,9.6-7c2-3.2-0.1-9.7-0.1-9.7
		C177.9,112.7,175.4,114.8,170.7,118.2z"/>
	<path class="st0" d="M171.8,104c-4.3,2.8-0.8,8.3-0.8,8.3c0.5-3.6,5.4-3.9,7.5-9.1c1.4-3.5-1.4-10.2-1.4-10.2
		C177.7,96,177,100.5,171.8,104z"/>
	<path class="st0" d="M167.1,129.5c-1.9-2.8,0.7-5.6,0.3-10s-5-6.6-5-6.6c1.1,3.3-0.9,5.6-0.8,10.3
		C161.7,127.3,167.1,129.5,167.1,129.5z"/>
	<path class="st0" d="M164.7,110.5c0.9,3.3,5.8,3.9,5.8,3.9c-2.1-1.9-0.6-4.7-1.8-8.2c-1.2-3.4-5.5-4.3-5.5-4.3
		C164.8,104.4,163.7,106.7,164.7,110.5z"/>
	<path class="st0" d="M165.5,98.6c0.8,3,5.3,3.6,5.3,3.6c-2-1.7-0.6-4.3-1.7-7.5c-1.1-3.1-5-4-5-4C165.5,93,164.5,95.1,165.5,98.6z"
		/>
	<path class="st0" d="M174.8,78.7c-8.2,1.4-7.9,8.6-6,11.6c1.8,2.9,1.3,6.9,1.3,6.9s6.6-2.1,3-10.5C171,82,174.8,78.7,174.8,78.7z"
		/>
	<path class="st0" d="M81.5,175.3c0,0-3.1-5.9-8.2-5c-6.4,1.1-9.2,2.1-13.8,0.1c0,0,0.9,8.8,8.9,8.3
		C75.2,178.3,72.6,172.4,81.5,175.3z"/>
	<path class="st0" d="M71.7,167.2c0,0,1.3-7-0.9-10.7c-2.1-3.7-8.3-4.3-9.4-6.4c0,0-2.6,5.9,3,9.8C70.1,163.8,71.7,167.2,71.7,167.2
		z"/>
	<path class="st0" d="M68,167c0,0-2.4-7-10.5-6.9c-8.1,0.1-11.4-5-11.4-5s-0.3,6.4,4.9,10.1C58.7,170.8,62.3,164.5,68,167z"/>
	<path class="st0" d="M54.7,154.5c0,0-0.7-6.2-6.8-6.9c-6.1-0.7-9.4-1.4-10.4-3.7c0,0,1.3,7.1,4.8,9.1
		C47.5,155.8,53.2,153.4,54.7,154.5z"/>
	<path class="st0" d="M40.7,134.4c-5.4-2.3-8.2-3.8-8.5-6.2c0,0-0.7,6.8,1.9,9.6c4,4.1,9.8,3.4,10.9,4.8
		C45.1,142.6,46.1,136.7,40.7,134.4z"/>
	<path class="st0" d="M38,127c0,0,2.2-5.5-2.5-8.9c-4.8-3.4-7.2-5.4-7-7.9c0,0-2.2,6.5-0.1,9.7C31.4,124.8,37.2,125.4,38,127z"/>
	<path class="st0" d="M27.6,103.3c2.1,5.2,7,5.5,7.5,9.1c0,0,3.5-5.5-0.8-8.3c-5.2-3.4-5.9-8-5.3-10.9C29,93,26.2,99.8,27.6,103.3z"
		/>
	<path class="st0" d="M50.2,135.2c-2-4.4-6.1-6.4-5.8-9.8c0,0-2,5.8-0.8,9.2c1.2,3.5,3.5,5.3,4,9.1c0,0,2.1-2,2.8-4.6
		c-0.3,2-0.2,4.5,1,6.7c2.7,4.6,5.4,6.5,4.7,10.5c0,0,7-6.1,3.5-12c-3.6-5.9-7.6-5.5-8.1-8.9c0,0-0.5,1.1-0.9,2.7
		C50.8,137.2,50.7,136.2,50.2,135.2z"/>
	<path class="st0" d="M38.6,119.6c-0.4,4.3,2.2,7.2,0.3,10c0,0,5.5-2.2,5.5-6.3c0.1-4.7-1.9-7-0.8-10.3
		C43.7,112.9,39,115.3,38.6,119.6z"/>
	<path class="st0" d="M37.4,106.3c-1.2,3.4,0.3,6.3-1.8,8.2c0,0,4.9-0.6,5.8-3.9c1-3.8-0.1-6.1,1.5-8.5
		C42.9,101.9,38.6,102.9,37.4,106.3z"/>
	<path class="st0" d="M37,94.7c-1.1,3.1,0.3,5.8-1.7,7.5c0,0,4.5-0.6,5.3-3.6c0.9-3.5-0.1-5.6,1.4-7.8C42,90.7,38.1,91.6,37,94.7z"
		/>
	<path class="st0" d="M31.3,78.7c0,0,3.7,3.2,1.6,8.1c-3.6,8.4,3,10.5,3,10.5s-0.5-4,1.3-6.9C39.2,87.3,39.5,80.1,31.3,78.7z"/>
	<path class="st0" d="M93.6,169.3c-1.2,0-2.1,0.9-2.1,2.1v1.9c-1.5-0.2-4.3-0.5-6.4,0.7c0.9-2.4,3.4-10.9-2.5-12.3
		c-7.1-1.6-8.2-5.4-8.2-5.4s-2.1,10.2,3.8,11.9c5.1,1.5,6.3,4.7,6.6,5.9c-0.4,0.2-0.8,0.5-1.1,0.9c-2.9,3.2-7.5,0-7.5,0
		s1.1,7.2,8.2,6.2c3.8-0.5,3.3-4.5,7.2-7.1v5.6c0,1.2,0.9,2.1,2.1,2.1c1.2,0,2.1-0.9,2.1-2.1v-8.3C95.7,170.2,94.8,169.3,93.6,169.3
		z"/>
	<path class="st0" d="M99.9,170.1c-1.2,0-2.1,0.9-2.1,2.1v8.3c0,1.2,0.9,2.1,2.1,2.1c1.2,0,2.1-0.9,2.1-2.1v-8.3
		C102,171,101.1,170.1,99.9,170.1z"/>
	<path class="st0" d="M106.2,170.1c-1.2,0-2.1,0.9-2.1,2.1v8.3c0,1.2,0.9,2.1,2.1,2.1c1.2,0,2.1-0.9,2.1-2.1v-8.3
		C108.3,171,107.4,170.1,106.2,170.1z"/>
</g>
</svg>
