<?xml version="1.0" encoding="utf-8"?>
<!-- Generator: Adobe Illustrator 19.1.0, SVG Export Plug-In . SVG Version: 6.00 Build 0)  -->
<svg version="1.1" id="Layer_1" xmlns="http://www.w3.org/2000/svg" xmlns:xlink="http://www.w3.org/1999/xlink" x="0px" y="0px"
	 viewBox="110 146 860 190" style="enable-background:new 110 146 860 190;" xml:space="preserve">
<style type="text/css">
	.st0{fill:#FFFFFF;}
</style>
<g>
	<path class="st0" d="M373,208.3c0-17.9-3.1-29.6-20.1-29.6h-20.1v60.9h19.3C368.4,239.6,373,229.9,373,208.3z M345.1,230.6v-42.8
		h5.2c9.4,0,10.5,7.1,10.5,20.9c0,16.5-1.7,21.9-10.2,21.9H345.1z"/>
	<path class="st0" d="M394.3,213.9h6.6c4.9,0,7.1,2.9,7.2,7.7l0.3,11.7c0.1,2.4,0.3,4.7,1.5,6.4h13.3v-0.5
		c-2.3-1.2-2.6-4.5-2.7-10.9c-0.2-12.9-1.4-17.5-9.8-18.6v-0.2c6.9-1.4,10.1-6.9,10.1-15c0-10.4-6.1-15.7-16.2-15.7h-22.7v60.9h12.3
		v-25.8H394.3z M394.3,187.8h5.8c5.5,0,8.5,2.8,8.5,8.4c0,6.6-3.3,9.1-9.2,9.1h-5.1L394.3,187.8L394.3,187.8z"/>
	<path class="st0" d="M439.1,191.2l-4.2,1.1c-5.1,1.4-7.3,3.6-7.3,9c0,3.9,1.8,8.3,7,8.3c3.5,0,5.6-0.8,7.4-3.8h0.1
		c0.2,1,0.4,2.1,0.9,3h7.1c-0.8-1.7-0.9-2.9-0.9-5.6v-15.1c0-5.2-1.7-8.9-10.5-8.9c-5.6,0-10.2,2.3-10.2,8.9v0.7h6.7V188
		c0-2.3,1.2-3.8,3.4-3.8c2.5,0,3.4,1.3,3.4,3.5C442.1,189.8,441.3,190.6,439.1,191.2z M442.1,200.1c0,3.2-2.6,4.5-4.6,4.5
		s-2.8-1.8-2.8-4c0-2.6,1.2-4,4.2-4.7c0.9-0.2,2.2-0.7,3.2-1.5L442.1,200.1L442.1,200.1z"/>
	<polygon class="st0" points="516.4,229.5 493.8,229.5 493.8,213.2 514.3,213.2 514.3,203.1 493.8,203.1 493.8,188.8 515.6,188.8 
		515.6,178.7 481.6,178.7 481.6,239.6 516.4,239.6 	"/>
	<polygon class="st0" points="557.4,229.5 535.7,229.5 535.7,178.7 523.4,178.7 523.4,239.6 557.4,239.6 	"/>
	<rect x="564.4" y="178.7" class="st0" width="12.3" height="60.9"/>
	<path class="st0" d="M599.1,178.7L583,239.6h12.8l2.8-12.9h16.2l2.8,12.9h12.8l-16.1-60.9C614.3,178.7,599.1,178.7,599.1,178.7z
		 M600.7,216.7l5.9-27.4h0.2l5.9,27.4H600.7z"/>
	<polygon class="st0" points="647.7,197 647.9,197 662.9,239.6 676.9,239.6 676.9,178.7 665.6,178.7 665.6,220.4 665.5,220.4 
		650.6,178.7 636.5,178.7 636.5,239.6 647.7,239.6 	"/>
	<path class="st0" d="M714.3,178.7h-15.2L683,239.6h12.8l2.8-12.9h16.2l2.8,12.9h12.8L714.3,178.7z M700.8,216.7l5.9-27.4h0.2
		l5.9,27.4H700.8z"/>
	<polygon class="st0" points="772.2,213.2 792.6,213.2 792.6,203.1 772.2,203.1 772.2,188.8 793.9,188.8 793.9,178.7 759.9,178.7 
		759.9,239.6 772.2,239.6 	"/>
	<polygon class="st0" points="835.5,229.5 812.9,229.5 812.9,213.2 833.3,213.2 833.3,203.1 812.9,203.1 812.9,188.8 834.6,188.8 
		834.6,178.7 800.6,178.7 800.6,239.6 835.5,239.6 	"/>
	<polygon class="st0" points="876.5,229.5 854.7,229.5 854.7,178.7 842.4,178.7 842.4,239.6 876.5,239.6 	"/>
	<rect x="883.4" y="178.7" class="st0" width="12.3" height="60.9"/>
	<polygon class="st0" points="915.7,239.6 924.4,219 933.2,239.6 947,239.6 931.8,208.8 945.9,178.7 932.6,178.7 924.8,198.4 
		917,178.7 903.4,178.7 917.4,208.8 902.2,239.6 	"/>
	<polygon class="st0" points="338,284.9 353,284.9 353,280.5 338,280.5 338,267.8 353.9,267.8 353.9,263.4 333,263.4 333,303.8 
		354.6,303.8 354.6,299.4 338,299.4 	"/>
	<path class="st0" d="M363.5,273.3c0-4.3,2.5-6.6,6.7-6.6c4.8,0,6.3,2.9,6.3,7.2h5c-0.1-7.4-3.6-11.3-11.3-11.3
		c-10.2,0-11.8,7.4-11.8,11.1c0,14.8,19.1,8.2,19.1,19.6c0,4.3-3.1,7.1-7,7.1c-7.3,0-7.6-4.9-7.6-9.4h-5c0,8.6,2.8,13.5,12.2,13.5
		c5.7,0,12.6-2.7,12.6-12C382.6,277.8,363.5,284.6,363.5,273.3z"/>
	<path class="st0" d="M397.8,263.4h-10.3v40.4h5v-17.1h6.2c6.8,0,11.7-4.2,11.7-11.7C410.3,263.4,401.3,263.4,397.8,263.4z
		 M398.4,282.7h-5.9v-15.2h5.6c4.9,0,7,2.9,7,7.3C405.1,280.2,402,282.7,398.4,282.7z"/>
	<polygon class="st0" points="419.8,284.9 434.8,284.9 434.8,280.5 419.8,280.5 419.8,267.8 435.7,267.8 435.7,263.4 414.8,263.4 
		414.8,303.8 436.4,303.8 436.4,299.4 419.8,299.4 	"/>
	<path class="st0" d="M452.8,300.5c-6.9,0-7.8-7.6-7.8-16.9s0.9-16.9,7.8-16.9c5.1,0,6.6,3.9,6.7,8.5h5.2
		c-0.2-7.9-3.7-12.6-11.9-12.6c-11.1,0-13,10.8-13,21s1.5,21,13,21c8.8,0,11.8-7,12.3-14.7h-5.2
		C459.7,294.9,458.9,300.5,452.8,300.5z"/>
	<rect x="469.8" y="263.4" class="st0" width="5" height="40.4"/>
	<path class="st0" d="M490.2,263.4l-11.7,40.4h5.2l3-11.1h12.9l2.9,11.1h5.2l-10.9-40.4H490.2z M487.7,288.6l5.6-19.5h0.1l5.1,19.5
		H487.7z"/>
	<polygon class="st0" points="516.5,263.4 511.5,263.4 511.5,303.8 532.9,303.8 532.9,299.4 516.5,299.4 	"/>
	<rect x="537.1" y="263.4" class="st0" width="5" height="40.4"/>
	<path class="st0" d="M552.9,273.3c0-4.3,2.5-6.6,6.7-6.6c4.8,0,6.3,2.9,6.3,7.2h5c-0.1-7.4-3.6-11.3-11.3-11.3
		c-10.2,0-11.8,7.4-11.8,11.1c0,14.8,19.1,8.2,19.1,19.6c0,4.3-3.1,7.1-7,7.1c-7.3,0-7.6-4.9-7.6-9.4h-5c0,8.6,2.8,13.5,12.2,13.5
		c5.7,0,12.6-2.7,12.6-12C572,277.8,552.9,284.6,552.9,273.3z"/>
	<polygon class="st0" points="599.6,263.4 574.3,263.4 574.3,267.8 584.4,267.8 584.4,303.8 589.4,303.8 589.4,267.8 599.6,267.8 	
		"/>
	<path class="st0" d="M608.1,263.4l-11.7,40.4h5.2l3-11.1h12.9l2.9,11.1h5.2l-10.9-40.4H608.1z M605.7,288.6l5.6-19.5h0.1l5.1,19.5
		H605.7z"/>
	<polygon class="st0" points="648.3,284.9 663.3,284.9 663.3,280.5 648.3,280.5 648.3,267.8 664.2,267.8 664.2,263.4 643.3,263.4 
		643.3,303.8 664.9,303.8 664.9,299.4 648.3,299.4 	"/>
	<polygon class="st0" points="686.1,295.4 686,295.4 677.9,263.4 669.5,263.4 669.5,303.8 674.5,303.8 674.5,268.5 674.6,268.5 
		683.6,303.8 688.6,303.8 697.5,268.5 697.6,268.5 697.6,303.8 702.6,303.8 702.6,263.4 694.2,263.4 	"/>
	<polygon class="st0" points="729.1,263.4 724.1,263.4 724.1,303.8 745.5,303.8 745.5,299.4 729.1,299.4 	"/>
	<rect x="749.7" y="263.4" class="st0" width="5" height="40.4"/>
	<path class="st0" d="M773.5,300.5c-6.9,0-7.8-7.6-7.8-16.9s0.9-16.9,7.8-16.9c5.1,0,6.6,3.9,6.7,8.5h5.2
		c-0.2-7.9-3.7-12.6-11.9-12.6c-11.1,0-13,10.8-13,21s1.5,21,13,21c8.8,0,11.8-7,12.3-14.7h-5.2
		C780.4,294.9,779.5,300.5,773.5,300.5z"/>
	<rect x="790.4" y="263.4" class="st0" width="5" height="40.4"/>
	<polygon class="st0" points="824.8,263.4 799.5,263.4 799.5,267.8 809.7,267.8 809.7,303.8 814.6,303.8 814.6,267.8 824.8,267.8 	
		"/>
	<path class="st0" d="M833.4,263.4l-11.7,40.4h5.2l3-11.1h12.9l2.9,11.1h5.2L840,263.4H833.4z M830.9,288.6l5.6-19.5h0.1l5.1,19.5
		H830.9z"/>
	<path class="st0" d="M865.7,300.5c-6.9,0-7.8-7.6-7.8-16.9s0.9-16.9,7.8-16.9c5.1,0,6.6,3.9,6.7,8.5h5.2
		c-0.2-7.9-3.7-12.6-11.9-12.6c-11.1,0-13,10.8-13,21c0,9.6,1.4,19.7,11.1,20.9l-2.6,3.9l0.8,1c0.2-0.2,1-0.4,2.1-0.4
		c1.4,0,2.7,0.8,2.7,2.1c0,1.2-0.8,2.3-3.1,2.3c-0.9,0-3.5-0.6-3.6-0.7l-0.8,1.9c1.2,0.7,3.5,1.1,5.6,1.1c3.2,0,6.1-2,6.1-4.9
		c0-3.1-2.6-4.3-4.5-4.3c-0.4,0-1.3,0.2-1.7,0.3l-0.1-0.1l1.5-2.3c8.5-0.2,11.4-7.1,11.9-14.7h-5.2
		C872.6,294.9,871.7,300.5,865.7,300.5z"/>
	<path class="st0" d="M892.1,254.2c-3,0-5.3,2.9-5.3,6.3h3.1c0.2-1,0.7-2.5,2.2-2.5c1.2,0,4.1,2.1,6.5,2.1c3.2,0,4.9-3.5,4.9-6.3
		h-3.1c-0.2,1-0.5,2.5-2,2.5c-0.7,0-1.8-0.6-2.9-1.1C894.4,254.8,893.2,254.2,892.1,254.2z"/>
	<path class="st0" d="M895.2,262.6c-11.1,0-13,10.8-13,21s1.9,21,13,21s13-10.8,13-21S906.3,262.6,895.2,262.6z M895.2,300.5
		c-6.9,0-7.8-7.6-7.8-16.9s0.9-16.9,7.8-16.9c6.9,0,7.8,7.6,7.8,16.9S902.1,300.5,895.2,300.5z"/>
	<polygon class="st0" points="919,284.9 934,284.9 934,280.5 919,280.5 919,267.8 934.9,267.8 934.9,263.4 914,263.4 914,303.8 
		935.6,303.8 935.6,299.4 919,299.4 	"/>
	<path class="st0" d="M944.6,273.3c0-4.3,2.5-6.6,6.7-6.6c4.8,0,6.3,2.9,6.3,7.2h5c-0.1-7.4-3.6-11.3-11.3-11.3
		c-10.2,0-11.8,7.4-11.8,11.1c0,14.8,19.1,8.2,19.1,19.6c0,4.3-3.1,7.1-7,7.1c-7.3,0-7.6-4.9-7.6-9.4h-5c0,8.6,2.8,13.5,12.2,13.5
		c5.7,0,12.6-2.7,12.6-12C963.6,277.8,944.6,284.6,944.6,273.3z"/>
	<polygon class="st0" points="233.2,288.1 225.3,274.4 212,282.1 202.7,266.1 213.3,260 205.4,246.3 194.8,252.4 185.6,236.4 
		198.9,228.7 191,215 159,233.5 166.9,247.1 166.9,247.1 180.1,270 184,276.9 184,276.9 193.3,292.9 193.3,292.9 201.2,306.5 
		201.2,306.5 201.2,306.6 219.9,295.8 219.8,295.8 	"/>
	<path class="st0" d="M309,213.7l-27.8-35.2v-1.8h2.2c1.4,0,2.5-1.1,2.5-2.5V173c0-3.5-2.8-6.3-6.3-6.3H277c-3.5,0-6.3,2.8-6.3,6.3
		v0.5c-6.4,1.4-16.3,0.5-27.7-3c-10.6-3.3-18.2-2.9-21.6-2.5c-0.9-2.8-2.8-5.1-5.1-6.2v-0.9c1-0.3,1.7-1.3,1.7-2.4v-2.4
		c0-1.4-1.1-2.5-2.5-2.5h-5c-1.4,0-2.5,1.1-2.5,2.5v2.4c0,1.1,0.7,2,1.7,2.4v1.1c-2.3,1.1-4.2,3.4-5.1,6.2c-3.3-0.5-11-0.9-21.8,2.5
		c-11.4,3.5-21.3,4.4-27.7,3v-0.5c0-3.5-2.8-6.3-6.3-6.3h-2.6c-3.5,0-6.3,2.8-6.3,6.3v1.2c0,1.4,1.1,2.5,2.5,2.5h2.2v1.8l-27.7,35
		c-0.2,0.2-0.2,0.4-0.3,0.6c-0.2,0.4-0.3,0.8-0.3,1.2v0.3c0,4,14,7.3,31.2,7.3s31.2-3.3,31.2-7.3v-0.3c0-0.4-0.1-0.8-0.3-1.2
		c0-0.2-0.1-0.5-0.3-0.7l-27.7-35V177c3,1.4,7.7,2.8,13.9,2.2c11.4-0.9,26-9.1,39.7-7.9c0,0.3,0,0.6,0,1c0,4.7,2.4,8.7,5.8,10.3
		v21.6l-3.5,2l0,0l-13.4,7.8l7.9,13.6l13.3-7.7l9.3,16.1l-10.6,6.1l7.9,13.6l10.6-6.1l17.2,29.7l18.7-10.8L246,232l-3.9-6.8l0,0
		l-17.2-29.7l-8.6,4.9v-17.8c3.4-1.6,5.8-5.6,5.8-10.3c0-0.3,0-0.7,0-1c13.6-1.1,28.1,7,39.5,7.9c6.3,0.5,10.9-0.8,13.9-2.2v1.6
		l-27.8,35.2c-0.2,0.2-0.3,0.4-0.3,0.7c-0.2,0.4-0.3,0.8-0.3,1.2v0.3c0,4,14,7.3,31.2,7.3s31.2-3.3,31.2-7.3v-0.3
		c0-0.4-0.1-0.8-0.3-1.2C309.2,214.1,309.1,213.9,309,213.7z M146,181.9v31.7c-13.3,0-21-0.4-24.6-0.6L146,181.9z M149.1,181.9
		l24.6,31.1c-3.5,0.2-11.3,0.6-24.6,0.6V181.9z M276.8,181.9v31.7c-13.3,0-21.1-0.4-24.6-0.6L276.8,181.9z M279.9,181.9l24.6,31.1
		c-3.5,0.2-11.3,0.6-24.6,0.6V181.9z"/>
	<path class="st0" d="M232.5,321c-0.3-0.4-0.7-0.7-1.1-0.9c0.3-1.2,1.5-4.4,6.6-5.9c5.9-1.7,3.8-11.9,3.8-11.9s-1.2,3.7-8.2,5.4
		c-5.9,1.4-3.4,9.8-2.5,12.3c-2.2-1.1-5-0.9-6.4-0.7v-1.9c0-1.2-0.9-2.1-2.1-2.1s-2.1,0.9-2.1,2.1v8.3c0,1.2,0.9,2.1,2.1,2.1
		s2.1-0.9,2.1-2.1v-5.6c3.9,2.7,3.3,6.6,7.2,7.1c7.1,0.9,8.2-6.2,8.2-6.2S235.4,324.2,232.5,321z"/>
	<path class="st0" d="M242.8,316.4c-5.1-0.9-8.2,5-8.2,5c8.9-3,6.3,3,13.1,3.4c7.9,0.5,8.9-8.3,8.9-8.3
		C251.9,318.5,249.2,317.5,242.8,316.4z"/>
	<path class="st0" d="M251.7,306c5.7-3.9,3-9.8,3-9.8c-1.1,2.1-7.3,2.6-9.4,6.4c-2.1,3.7-0.9,10.7-0.9,10.7S246,309.8,251.7,306z"/>
	<path class="st0" d="M258.6,306.1c-8.1-0.1-10.5,6.9-10.5,6.9c5.6-2.5,9.3,3.8,17-1.8c5.2-3.7,4.9-10.1,4.9-10.1
		S266.7,306.1,258.6,306.1z"/>
	<path class="st0" d="M256.4,290.3c-3.6,5.9,3.5,12,3.5,12c-0.7-4,2-5.9,4.7-10.5c1.3-2.2,1.3-4.7,1-6.7c0.7,2.7,2.8,4.6,2.8,4.6
		c0.5-3.8,2.8-5.7,4-9.1c1.2-3.5-0.8-9.2-0.8-9.2c0.3,3.5-3.8,5.5-5.8,9.8c-0.5,1-0.6,2-0.5,2.9c-0.4-1.6-0.9-2.7-0.9-2.7
		C264.1,284.8,260,284.4,256.4,290.3z"/>
	<path class="st0" d="M268.2,293.5c-6.1,0.7-6.8,6.9-6.8,6.9c1.5-1.1,7.2,1.3,12.4-1.6c3.5-2,4.8-9.1,4.8-9.1
		C277.6,292.2,274.3,292.8,268.2,293.5z"/>
	<path class="st0" d="M275.4,280.4c-5.4,2.3-4.3,8.1-4.3,8.1c1.1-1.4,6.9-0.8,10.9-4.8c2.7-2.7,1.9-9.6,1.9-9.6
		C283.6,276.6,280.8,278.2,275.4,280.4z"/>
	<path class="st0" d="M280.7,264.2c-4.8,3.4-2.5,8.9-2.5,8.9c0.8-1.6,6.6-2.2,9.6-7c2-3.2-0.1-9.7-0.1-9.7
		C287.9,258.7,285.4,260.8,280.7,264.2z"/>
	<path class="st0" d="M281.8,250c-4.3,2.8-0.8,8.3-0.8,8.3c0.5-3.6,5.4-3.9,7.5-9.1c1.4-3.5-1.4-10.2-1.4-10.2
		C287.7,242,287,246.5,281.8,250z"/>
	<path class="st0" d="M277.1,275.5c-1.9-2.8,0.7-5.6,0.3-10c-0.4-4.4-5-6.6-5-6.6c1.1,3.3-0.9,5.6-0.8,10.3
		C271.7,273.3,277.1,275.5,277.1,275.5z"/>
	<path class="st0" d="M274.7,256.5c0.9,3.3,5.8,3.9,5.8,3.9c-2.1-1.9-0.6-4.7-1.8-8.2c-1.2-3.4-5.5-4.3-5.5-4.3
		C274.8,250.4,273.7,252.7,274.7,256.5z"/>
	<path class="st0" d="M275.5,244.6c0.8,3,5.3,3.6,5.3,3.6c-2-1.7-0.6-4.3-1.7-7.5c-1.1-3.1-5-4-5-4
		C275.5,239,274.5,241.1,275.5,244.6z"/>
	<path class="st0" d="M284.8,224.7c-8.2,1.4-7.9,8.6-6,11.6c1.8,2.9,1.3,6.9,1.3,6.9s6.6-2.1,3-10.5
		C281,228,284.8,224.7,284.8,224.7z"/>
	<path class="st0" d="M191.5,321.3c0,0-3.1-5.9-8.2-5c-6.4,1.1-9.2,2.1-13.8,0.1c0,0,0.9,8.8,8.9,8.3
		C185.2,324.3,182.6,318.4,191.5,321.3z"/>
	<path class="st0" d="M181.7,313.2c0,0,1.3-7-0.9-10.7c-2.1-3.7-8.3-4.3-9.4-6.4c0,0-2.6,5.9,3,9.8
		C180.1,309.8,181.7,313.2,181.7,313.2z"/>
	<path class="st0" d="M178,313c0,0-2.4-7-10.5-6.9s-11.4-5-11.4-5s-0.3,6.4,4.9,10.1C168.7,316.8,172.3,310.5,178,313z"/>
	<path class="st0" d="M164.7,300.5c0,0-0.7-6.2-6.8-6.9c-6.1-0.7-9.4-1.4-10.4-3.7c0,0,1.3,7.1,4.8,9.1
		C157.5,301.8,163.2,299.4,164.7,300.5z"/>
	<path class="st0" d="M150.7,280.4c-5.4-2.3-8.2-3.8-8.5-6.2c0,0-0.7,6.8,1.9,9.6c4,4.1,9.8,3.4,10.9,4.8
		C155.1,288.6,156.1,282.7,150.7,280.4z"/>
	<path class="st0" d="M148,273c0,0,2.2-5.5-2.5-8.9c-4.8-3.4-7.2-5.4-7-7.9c0,0-2.2,6.5-0.1,9.7C141.4,270.8,147.2,271.4,148,273z"
		/>
	<path class="st0" d="M137.6,249.3c2.1,5.2,7,5.5,7.5,9.1c0,0,3.5-5.5-0.8-8.3c-5.2-3.4-5.9-8-5.3-10.9
		C139,239,136.2,245.8,137.6,249.3z"/>
	<path class="st0" d="M160.2,281.2c-2-4.4-6.1-6.4-5.8-9.8c0,0-2,5.8-0.8,9.2c1.2,3.5,3.5,5.3,4,9.1c0,0,2.1-2,2.8-4.6
		c-0.3,2-0.2,4.5,1,6.7c2.7,4.6,5.4,6.5,4.7,10.5c0,0,7-6.1,3.5-12c-3.6-5.9-7.6-5.5-8.1-8.9c0,0-0.5,1.1-0.9,2.7
		C160.8,283.2,160.7,282.2,160.2,281.2z"/>
	<path class="st0" d="M148.6,265.6c-0.4,4.3,2.2,7.2,0.3,10c0,0,5.5-2.2,5.5-6.3c0.1-4.7-1.9-7-0.8-10.3
		C153.7,258.9,149,261.3,148.6,265.6z"/>
	<path class="st0" d="M147.4,252.3c-1.2,3.4,0.3,6.3-1.8,8.2c0,0,4.9-0.6,5.8-3.9c1-3.8-0.1-6.1,1.5-8.5
		C152.9,247.9,148.6,248.9,147.4,252.3z"/>
	<path class="st0" d="M147,240.7c-1.1,3.1,0.3,5.8-1.7,7.5c0,0,4.5-0.6,5.3-3.6c0.9-3.5-0.1-5.6,1.4-7.8
		C152,236.7,148.1,237.6,147,240.7z"/>
	<path class="st0" d="M141.3,224.7c0,0,3.7,3.2,1.6,8.1c-3.6,8.4,3,10.5,3,10.5s-0.5-4,1.3-6.9C149.2,233.3,149.5,226.1,141.3,224.7
		z"/>
	<path class="st0" d="M203.6,315.3c-1.2,0-2.1,0.9-2.1,2.1v1.9c-1.5-0.2-4.3-0.5-6.4,0.7c0.9-2.4,3.4-10.9-2.5-12.3
		c-7.1-1.6-8.2-5.4-8.2-5.4s-2.1,10.2,3.8,11.9c5.1,1.5,6.3,4.7,6.6,5.9c-0.4,0.2-0.8,0.5-1.1,0.9c-2.9,3.2-7.5,0-7.5,0
		s1.1,7.2,8.2,6.2c3.8-0.5,3.3-4.5,7.2-7.1v5.6c0,1.2,0.9,2.1,2.1,2.1s2.1-0.9,2.1-2.1v-8.3C205.7,316.2,204.8,315.3,203.6,315.3z"
		/>
	<path class="st0" d="M209.9,316.1c-1.2,0-2.1,0.9-2.1,2.1v8.3c0,1.2,0.9,2.1,2.1,2.1c1.2,0,2.1-0.9,2.1-2.1v-8.3
		C212,317,211.1,316.1,209.9,316.1z"/>
	<path class="st0" d="M216.2,316.1c-1.2,0-2.1,0.9-2.1,2.1v8.3c0,1.2,0.9,2.1,2.1,2.1s2.1-0.9,2.1-2.1v-8.3
		C218.3,317,217.4,316.1,216.2,316.1z"/>
</g>
</svg>
